{
    "asset" : {
        "generator" : "Khronos glTF Blender I/O v3.2.40",
        "version" : "2.0"
    },
    "scene" : 0,
    "scenes" : [
        {
            "name" : "Scene",
            "nodes" : [
                0,
                1
            ]
        }
    ],
    "nodes" : [
        {
            "mesh" : 0,
            "name" : "cubeMetal"
        },
        {
            "mesh" : 1,
            "name" : "Core",
            "scale" : [
                0.33373045921325684,
                0.33373045921325684,
                0.33373045921325684
            ]
        }
    ],
    "materials" : [
        {
            "doubleSided" : true,
            "name" : "HardShell",
            "normalTexture" : {
                "index" : 0
            },
            "occlusionTexture" : {
                "index" : 1
            },
            "pbrMetallicRoughness" : {
                "baseColorTexture" : {
                    "index" : 2
                },
                "metallicRoughnessTexture" : {
                    "index" : 1
                }
            }
        },
        {
            "doubleSided" : true,
            "emissiveFactor" : [
                0.10392470033807921,
                0.3499845772984269,
                0.699999988079071
            ],
            "name" : "Emission",
            "pbrMetallicRoughness" : {
                "baseColorFactor" : [
                    0,
                    0,
                    0,
                    1
                ]
            }
        }
    ],
    "meshes" : [
        {
            "name" : "cubeMetal",
            "primitives" : [
                {
                    "attributes" : {
                        "POSITION" : 0,
                        "NORMAL" : 1,
                        "TEXCOORD_0" : 2,
                        "TEXCOORD_1" : 3
                    },
                    "indices" : 4,
                    "material" : 0
                }
            ]
        },
        {
            "name" : "Core",
            "primitives" : [
                {
                    "attributes" : {
                        "POSITION" : 5,
                        "NORMAL" : 6,
                        "TEXCOORD_0" : 7
                    },
                    "indices" : 8,
                    "material" : 1
                }
            ]
        }
    ],
    "textures" : [
        {
            "sampler" : 0,
            "source" : 0
        },
        {
            "sampler" : 0,
            "source" : 1
        },
        {
            "sampler" : 0,
            "source" : 2
        }
    ],
    "images" : [
        {
            "bufferView" : 5,
            "mimeType" : "image/png",
            "name" : "Image_0"
        },
        {
            "bufferView" : 6,
            "mimeType" : "image/png",
            "name" : "Image_1"
        },
        {
            "bufferView" : 7,
            "mimeType" : "image/png",
            "name" : "Image_2"
        }
    ],
    "accessors" : [
        {
            "bufferView" : 0,
            "componentType" : 5126,
            "count" : 1373,
            "max" : [
                0.4180156886577606,
                0.4180157482624054,
                0.36801567673683167
            ],
            "min" : [
                -0.4180156886577606,
                -0.41801565885543823,
                -0.4180156886577606
            ],
            "type" : "VEC3"
        },
        {
            "bufferView" : 1,
            "componentType" : 5126,
            "count" : 1373,
            "type" : "VEC3"
        },
        {
            "bufferView" : 2,
            "componentType" : 5126,
            "count" : 1373,
            "type" : "VEC2"
        },
        {
            "bufferView" : 3,
            "componentType" : 5126,
            "count" : 1373,
            "type" : "VEC2"
        },
        {
            "bufferView" : 4,
            "componentType" : 5123,
            "count" : 2592,
            "type" : "SCALAR"
        },
        {
            "bufferView" : 8,
            "componentType" : 5126,
            "count" : 24,
            "max" : [
                1,
                1,
                1
            ],
            "min" : [
                -1,
                -1,
                -1
            ],
            "type" : "VEC3"
        },
        {
            "bufferView" : 9,
            "componentType" : 5126,
            "count" : 24,
            "type" : "VEC3"
        },
        {
            "bufferView" : 10,
            "componentType" : 5126,
            "count" : 24,
            "type" : "VEC2"
        },
        {
            "bufferView" : 11,
            "componentType" : 5123,
            "count" : 36,
            "type" : "SCALAR"
        }
    ],
    "bufferViews" : [
        {
            "buffer" : 0,
            "byteLength" : 16476,
            "byteOffset" : 0
        },
        {
            "buffer" : 0,
            "byteLength" : 16476,
            "byteOffset" : 16476
        },
        {
            "buffer" : 0,
            "byteLength" : 10984,
            "byteOffset" : 32952
        },
        {
            "buffer" : 0,
            "byteLength" : 10984,
            "byteOffset" : 43936
        },
        {
            "buffer" : 0,
            "byteLength" : 5184,
            "byteOffset" : 54920
        },
        {
            "buffer" : 0,
            "byteLength" : 441060,
            "byteOffset" : 60104
        },
        {
            "buffer" : 0,
            "byteLength" : 1044747,
            "byteOffset" : 501164
        },
        {
            "buffer" : 0,
            "byteLength" : 951123,
            "byteOffset" : 1545912
        },
        {
            "buffer" : 0,
            "byteLength" : 288,
            "byteOffset" : 2497036
        },
        {
            "buffer" : 0,
            "byteLength" : 288,
            "byteOffset" : 2497324
        },
        {
            "buffer" : 0,
            "byteLength" : 192,
            "byteOffset" : 2497612
        },
        {
            "buffer" : 0,
            "byteLength" : 72,
            "byteOffset" : 2497804
        }
    ],
    "samplers" : [
        {
            "magFilter" : 9729,
            "minFilter" : 9987
        }
    ],
    "buffers" : [
        {
            "byteLength" : 2497876,
            "uri" : "data:application/octet-stream;base64,"
        }
    ]
}
